<mxfile host="app.diagrams.net" modified="2023-05-30T05:28:11.126Z" agent="Mozilla/5.0 (X11; Linux x86_64) AppleWebKit/537.36 (KHTML, like Gecko) Chrome/113.0.0.0 Safari/537.36" version="21.3.5" etag="7bCbcc7oocIyCzpGOFo8" type="github">
  <diagram name="Page-1" id="NJWRTCUTUIe2FUOjqVV5">
    <mxGraphModel>
      <root>
        <mxCell id="0" />
        <mxCell id="1" parent="0" />
      </root>
    </mxGraphModel>
  </diagram>
</mxfile>
